<svg xmlns="http://www.w3.org/2000/svg" xmlns:xlink="http://www.w3.org/1999/xlink" width="500" zoomAndPan="magnify" viewBox="0 0 375 374.999991" height="500" preserveAspectRatio="xMidYMid meet" version="1.0"><defs><clipPath id="d2fa821905"><path d="M 33.75 43.035156 L 330 43.035156 L 330 333.285156 L 33.75 333.285156 Z M 33.75 43.035156 " clip-rule="nonzero"/></clipPath></defs><g clip-path="url(#d2fa821905)"><path fill="#ffffff" d="M 281.261719 145.167969 C 281.261719 160.398438 275.332031 174.71875 264.5625 185.484375 C 253.796875 196.25 239.472656 202.183594 224.246094 202.183594 L 163.574219 202.183594 L 91.347656 333.460938 L 67.050781 333.460938 L 150.984375 180.898438 L 224.238281 180.898438 C 243.945312 180.898438 259.96875 164.863281 259.96875 145.167969 C 259.96875 125.460938 243.9375 109.433594 224.238281 109.433594 L 33.75 109.433594 L 34.308594 108.460938 L 60.507812 88.148438 L 224.238281 88.148438 C 239.472656 88.148438 253.789062 94.082031 264.558594 104.847656 C 275.332031 115.617188 281.261719 129.933594 281.261719 145.167969 Z M 322.144531 104.800781 C 317.046875 92.753906 309.757812 81.945312 300.476562 72.660156 C 291.191406 63.378906 280.378906 56.089844 268.339844 50.996094 C 255.863281 45.71875 242.617188 43.039062 228.964844 43.039062 L 118.6875 43.039062 L 91.226562 64.324219 L 228.964844 64.324219 C 250.292969 64.324219 270.335938 72.632812 285.417969 87.707031 C 300.5 102.789062 308.800781 122.839844 308.800781 144.160156 C 308.800781 165.488281 300.496094 185.53125 285.417969 200.613281 C 270.335938 215.695312 250.289062 223.996094 228.964844 223.996094 L 179.171875 223.996094 L 119.734375 333.457031 L 143.960938 333.457031 L 191.835938 245.28125 L 228.964844 245.28125 C 242.609375 245.28125 255.855469 242.605469 268.332031 237.332031 C 280.378906 232.238281 291.1875 224.949219 300.46875 215.664062 C 309.753906 206.382812 317.042969 195.566406 322.136719 183.527344 C 327.414062 171.050781 330.085938 157.804688 330.085938 144.160156 C 330.09375 130.515625 327.421875 117.269531 322.144531 104.800781 Z M 322.144531 104.800781 " fill-opacity="1" fill-rule="nonzero"/></g></svg>