<svg width="15" height="15" viewBox="0 0 15 15" fill="none" xmlns="http://www.w3.org/2000/svg">
<g id="priority_high" clip-path="url(#clip0_580_3044)">
<path id="Vector" d="M7.50016 12.75C8.14449 12.75 8.66683 12.2277 8.66683 11.5834C8.66683 10.939 8.14449 10.4167 7.50016 10.4167C6.85583 10.4167 6.3335 10.939 6.3335 11.5834C6.3335 12.2277 6.85583 12.75 7.50016 12.75Z" fill="#A0AEC0"/>
<path id="Vector_2" d="M7.50016 2.25003C6.8585 2.25003 6.3335 2.77503 6.3335 3.4167V8.08336C6.3335 8.72503 6.8585 9.25003 7.50016 9.25003C8.14183 9.25003 8.66683 8.72503 8.66683 8.08336V3.4167C8.66683 2.77503 8.14183 2.25003 7.50016 2.25003Z" fill="#A0AEC0"/>
</g>
<defs>
<clipPath id="clip0_580_3044">
<rect width="14" height="14" fill="white" transform="translate(0.500183 0.500031)"/>
</clipPath>
</defs>
</svg>
