<svg xmlns="http://www.w3.org/2000/svg" width="16" height="16" viewBox="0 0 16 16" fill="none">
  <path d="M13.6293 12.5958L10.8728 9.83929C11.5365 8.9558 11.8947 7.88041 11.8935 6.77542C11.8935 3.95297 9.59721 1.65668 6.77475 1.65668C3.95229 1.65668 1.65601 3.95297 1.65601 6.77542C1.65601 9.59788 3.95229 11.8942 6.77475 11.8942C7.87974 11.8954 8.95513 11.5371 9.83862 10.8735L12.5952 13.63C12.7347 13.7547 12.9167 13.8213 13.1038 13.8161C13.2909 13.8109 13.4688 13.7342 13.6012 13.6019C13.7335 13.4695 13.8102 13.2915 13.8154 13.1044C13.8207 12.9174 13.7541 12.7354 13.6293 12.5958ZM3.11851 6.77542C3.11851 6.05229 3.33294 5.34539 3.73469 4.74412C4.13645 4.14286 4.70748 3.67422 5.37557 3.39749C6.04366 3.12076 6.77881 3.04835 7.48805 3.18943C8.1973 3.33051 8.84878 3.67873 9.36011 4.19007C9.87145 4.7014 10.2197 5.35288 10.3607 6.06213C10.5018 6.77137 10.4294 7.50652 10.1527 8.17461C9.87595 8.8427 9.40732 9.41373 8.80606 9.81548C8.20479 10.2172 7.49789 10.4317 6.77475 10.4317C5.80541 10.4305 4.87611 10.0449 4.19068 9.3595C3.50525 8.67407 3.11967 7.74477 3.11851 6.77542Z" fill="#2D3748"/>
</svg>