<svg xmlns="http://www.w3.org/2000/svg" width="12" height="13" viewBox="0 0 12 13" fill="none">
  <g clip-path="url(#clip0_580_2803)">
    <path d="M11.6247 3.06662C11.2027 3.24999 10.7562 3.37079 10.2994 3.42522C10.7795 3.14406 11.1406 2.69738 11.3149 2.16897C10.8609 2.43442 10.3651 2.62067 9.84866 2.71975C9.63118 2.49183 9.36963 2.31051 9.07989 2.18681C8.79016 2.06312 8.4783 1.99964 8.16327 2.00022C6.8878 2.00022 5.85561 3.0174 5.85561 4.27131C5.85471 4.44572 5.87469 4.61962 5.91514 4.78928C5.00054 4.7464 4.10496 4.51309 3.28569 4.10426C2.46642 3.69543 1.74151 3.1201 1.15733 2.41506C0.95239 2.76056 0.844005 3.15476 0.843506 3.55647C0.843506 4.34397 1.25436 5.04006 1.87476 5.44787C1.50719 5.43915 1.14716 5.34186 0.825224 5.16428V5.1924C0.825224 6.29396 1.6221 7.21037 2.67679 7.41896C2.47845 7.47183 2.27408 7.49862 2.06882 7.49865C1.92317 7.4989 1.77786 7.48477 1.63499 7.45646C1.92819 8.35881 2.78155 9.01506 3.79241 9.03381C2.97102 9.66683 1.96256 10.009 0.925537 10.0065C0.741463 10.0062 0.55756 9.99523 0.374756 9.97365C1.42972 10.6473 2.65603 11.0036 3.90772 11.0002C8.15835 11.0002 10.4805 7.53849 10.4805 4.53615C10.4805 4.43772 10.478 4.33928 10.4733 4.24318C10.924 3.92257 11.3139 3.52415 11.6247 3.06662Z" fill="white"/>
  </g>
  <defs>
    <clipPath id="clip0_580_2803">
      <rect width="12" height="12" fill="white" transform="translate(-0.00012207 0.5)"/>
    </clipPath>
  </defs>
</svg>